<svg width="26" height="19" viewBox="0 0 26 19" fill="none" xmlns="http://www.w3.org/2000/svg">
<path d="M4.62 18.5C3.36667 18.5 2.28 18.28 1.36 17.84C0.453333 17.4134 0 16.7534 0 15.86C0 15.3267 0.22 14.8534 0.66 14.44C1.11333 14.0267 1.68667 13.6867 2.38 13.42C3.07333 13.14 3.86 12.8934 4.74 12.68C4.91333 12.6267 5.05333 12.5934 5.16 12.58L5.54 12.98C4.95333 13.1667 4.47333 13.36 4.1 13.56C3.72667 13.76 3.44 13.9867 3.24 14.24C3.04 14.48 2.94 14.7467 2.94 15.04C2.94 15.4534 3.12667 15.74 3.5 15.9C3.88667 16.0734 4.39333 16.16 5.02 16.16C5.62 16.16 6.19333 16.0934 6.74 15.96C7.3 15.8267 7.76 15.6334 8.12 15.38C8.48 15.1267 8.66 14.8267 8.66 14.48C8.66 14.2534 8.56 14.0734 8.36 13.94C8.16 13.8067 7.88 13.74 7.52 13.74C7.2 13.74 6.87333 13.7734 6.54 13.84C6.20667 13.8934 5.79333 13.98 5.3 14.1C4.87333 14.22 4.50667 14.3067 4.2 14.36C3.89333 14.4267 3.60667 14.46 3.34 14.46C2.79333 14.46 2.28667 14.3667 1.82 14.18C1.36667 13.98 1 13.7134 0.72 13.38C0.453333 13.0334 0.32 12.64 0.32 12.2C0.32 11.5867 0.626667 11.0534 1.24 10.6C1.86667 10.1334 2.72667 9.72669 3.82 9.38002L4.48 9.96002C4.30667 10.0134 4.14667 10.0667 4 10.12C3.65333 10.24 3.39333 10.3734 3.22 10.52C3.04667 10.6667 2.96 10.8667 2.96 11.12C2.96 11.3334 3.04667 11.4934 3.22 11.6C3.40667 11.7067 3.64 11.76 3.92 11.76C4.22667 11.76 4.54667 11.74 4.88 11.7C5.21333 11.6467 5.56 11.58 5.92 11.5C6.49333 11.3934 6.99333 11.3134 7.42 11.26C7.84667 11.2067 8.31333 11.18 8.82 11.18C9.71333 11.18 10.4533 11.3934 11.04 11.82C11.64 12.2467 11.94 12.9 11.94 13.78C11.94 14.7934 11.56 15.6534 10.8 16.36C10.0533 17.08 9.11333 17.6134 7.98 17.96C6.84667 18.32 5.72667 18.5 4.62 18.5ZM5.46 10.8C4.51333 10.8 3.67333 10.64 2.94 10.32C2.22 9.98669 1.65333 9.52669 1.24 8.94002C0.84 8.35335 0.64 7.69335 0.64 6.96002C0.64 6.24002 0.84 5.59335 1.24 5.02002C1.65333 4.43335 2.22667 3.98002 2.96 3.66002C3.69333 3.32669 4.52667 3.16002 5.46 3.16002C6.03333 3.16002 6.49333 3.20669 6.84 3.30002C7.2 3.39335 7.58667 3.52002 8 3.68002C8.16 3.74669 8.30667 3.80669 8.44 3.86002C8.58667 3.90002 8.72667 3.92002 8.86 3.92002C9.20667 3.92002 9.45333 3.80002 9.6 3.56002C9.74667 3.32002 9.82 3.00669 9.82 2.62002L12.34 3.42002C12.3267 3.92669 12.12 4.32002 11.72 4.60002C11.3333 4.86669 10.82 5.00002 10.18 5.00002C10.02 4.98669 9.84 4.97335 9.64 4.96002C10.0667 5.54669 10.28 6.21335 10.28 6.96002C10.28 7.69335 10.0733 8.35335 9.66 8.94002C9.26 9.52669 8.69333 9.98669 7.96 10.32C7.22667 10.64 6.39333 10.8 5.46 10.8ZM5.46 8.84002C5.79333 8.84002 6.08667 8.76002 6.34 8.60002C6.59333 8.44002 6.78667 8.22002 6.92 7.94002C7.05333 7.64669 7.12 7.32002 7.12 6.96002C7.12 6.42669 6.96667 5.98669 6.66 5.64002C6.36667 5.29335 5.96667 5.12002 5.46 5.12002C5.12667 5.12002 4.83333 5.20002 4.58 5.36002C4.32667 5.52002 4.12667 5.74002 3.98 6.02002C3.84667 6.30002 3.78 6.61335 3.78 6.96002C3.78 7.50669 3.93333 7.96002 4.24 8.32002C4.56 8.66669 4.96667 8.84002 5.46 8.84002Z" fill="#111111"/>
<path d="M18.64 14.6C17.6 14.6 16.6933 14.3667 15.92 13.9C15.1467 13.42 14.5467 12.7534 14.12 11.9C13.7067 11.0334 13.5 10.0267 13.5 8.88002C13.5 7.73335 13.7067 6.73335 14.12 5.88002C14.5467 5.01335 15.1467 4.34669 15.92 3.88002C16.6933 3.40002 17.6 3.16002 18.64 3.16002C19.3733 3.16002 20.06 3.34669 20.7 3.72002C21.34 4.09335 21.86 4.60669 22.26 5.26002V0.0200195H25.0387V11.72C25.0387 12.6667 25.0921 13.5334 25.1987 14.32H22.26V12.42C21.8733 13.1 21.36 13.6334 20.72 14.02C20.0933 14.4067 19.4 14.6 18.64 14.6ZM16.84 8.88002C16.84 9.53335 16.9533 10.1134 17.18 10.62C17.4067 11.1134 17.72 11.5 18.12 11.78C18.52 12.0467 18.9933 12.18 19.54 12.18C20.0333 12.18 20.4867 12.04 20.9 11.76C21.3133 11.48 21.64 11.1134 21.88 10.66C22.1333 10.1934 22.26 9.70002 22.26 9.18002V8.58002C22.26 8.03335 22.1333 7.53335 21.88 7.08002C21.6267 6.62669 21.2867 6.26669 20.86 6.00002C20.4467 5.72002 20.0067 5.58002 19.54 5.58002C18.9933 5.58002 18.52 5.72002 18.12 6.00002C17.72 6.26669 17.4067 6.65335 17.18 7.16002C16.9533 7.65335 16.84 8.22669 16.84 8.88002Z" fill="#111111"/>
</svg>
